<svg id="a7473116-27b8-4c79-bd8f-030a20201fd2" data-name="Ebene 1" xmlns="http://www.w3.org/2000/svg" viewBox="0 0 511.71 511.71"><defs><style>.b7e472a4-7d89-4df7-afaf-51518b40a80e{fill:#9f14c1;}.e5ad599a-98ef-47d7-afdd-e74d39161db4{fill:#fff;}</style></defs><title>icon-light</title><g id="a5a985a1-2431-4d7d-89c3-5150f6727fc7" data-name="disk1"><path class="b7e472a4-7d89-4df7-afaf-51518b40a80e" d="M255.83.29C114.5.29,0,114.82,0,256.15S114.5,512,255.83,512,511.68,397.47,511.68,256.15,397.16.29,255.83.29Zm0,341.14a85.29,85.29,0,1,1,85.28-85.28A85.22,85.22,0,0,1,255.83,341.43Z" transform="translate(0.02 -0.29)"/><path class="e5ad599a-98ef-47d7-afdd-e74d39161db4" d="M124.58,256.15H47a10.18,10.18,0,0,0-10.23,10.49,217.51,217.51,0,0,0,24.1,89.88,10.13,10.13,0,0,0,14.06,3.93l66.92-38.62a10,10,0,0,0,4.22-12.91,120.49,120.49,0,0,1-11.71-43.36A9.93,9.93,0,0,0,124.58,256.15Zm312-104.44-66.89,38.61a10,10,0,0,0-4.21,12.94,119.89,119.89,0,0,1,11.79,43.47,10,10,0,0,0,9.79,9.42h77.56a10.18,10.18,0,0,0,10.24-10.49,217,217,0,0,0-24.22-90A10.14,10.14,0,0,0,436.61,151.71Z" transform="translate(0.02 -0.29)"/><path class="e5ad599a-98ef-47d7-afdd-e74d39161db4" d="M375.81,85.69,331.46,149a10.31,10.31,0,0,0,2.1,13.85q4.41,3.7,8.51,7.87a10.3,10.3,0,0,0,14,1L415.29,122a10.12,10.12,0,0,0,1.1-14.55,220.69,220.69,0,0,0-26.14-24.08A10.1,10.1,0,0,0,375.81,85.69ZM154.49,340.86,95.3,390.52a10.14,10.14,0,0,0-1.09,14.56,219,219,0,0,0,27.62,25.23,10.11,10.11,0,0,0,14.36-2.39l44.32-63.27a10,10,0,0,0-1.77-13.56,118.35,118.35,0,0,1-10.63-9.71A10,10,0,0,0,154.49,340.86Z" transform="translate(0.02 -0.29)"/><circle class="e5ad599a-98ef-47d7-afdd-e74d39161db4" cx="255.85" cy="255.85" r="36.55"/></g></svg>
