<svg id="e1cb49ec-f6ef-4c66-9071-50c2d82fc474" data-name="Ebene 1" xmlns="http://www.w3.org/2000/svg" viewBox="0 0 511.7 511.7"><defs><style>.e4d7c9f2-b1c0-4070-ab14-b1d287b4e01e{fill:#9400ff;}.a242ac02-9e86-4693-ac17-d47cd459e3d8{fill:#fff;}</style></defs><title>icon-standard</title><g id="ed5ef713-ba51-4052-86ed-b33ea0439cae" data-name="disk1"><path class="e4d7c9f2-b1c0-4070-ab14-b1d287b4e01e" d="M256.33-.2C115-.2.48,114.32.48,255.65S115,511.49,256.33,511.49,512.18,397,512.18,255.65,397.65-.2,256.33-.2Zm0,341.13a85.29,85.29,0,1,1,85.28-85.28A85.21,85.21,0,0,1,256.33,340.93Z" transform="translate(-0.48 0.2)"/><path class="a242ac02-9e86-4693-ac17-d47cd459e3d8" d="M125.08,255.65H47.51a10.18,10.18,0,0,0-10.23,10.49A217.5,217.5,0,0,0,61.37,356,10.15,10.15,0,0,0,75.44,360l66.92-38.62a10,10,0,0,0,4.21-12.91,120.7,120.7,0,0,1-11.71-43.36A9.93,9.93,0,0,0,125.08,255.65Zm312-104.44-66.89,38.61A10,10,0,0,0,366,202.76a120.14,120.14,0,0,1,11.79,43.47,9.94,9.94,0,0,0,9.79,9.42h77.56a10.18,10.18,0,0,0,10.23-10.49,217.12,217.12,0,0,0-24.21-90A10.14,10.14,0,0,0,437.11,151.21Z" transform="translate(-0.48 0.2)"/><path class="a242ac02-9e86-4693-ac17-d47cd459e3d8" d="M376.31,85.19,332,148.51a10.3,10.3,0,0,0,2.1,13.85q4.41,3.7,8.51,7.87a10.3,10.3,0,0,0,14,1l59.19-49.68A10.12,10.12,0,0,0,416.88,107a222.32,222.32,0,0,0-26.13-24.08A10.1,10.1,0,0,0,376.31,85.19ZM155,340.35,95.81,390a10.14,10.14,0,0,0-1.1,14.57,218.94,218.94,0,0,0,27.62,25.22,10.11,10.11,0,0,0,14.36-2.38L181,364.15a10,10,0,0,0-1.77-13.57,118.1,118.1,0,0,1-10.63-9.7A10.05,10.05,0,0,0,155,340.35Z" transform="translate(-0.48 0.2)"/><path d="M256.33,170.36a85.29,85.29,0,1,0,85.28,85.29A85.22,85.22,0,0,0,256.33,170.36Zm0,121.84a36.55,36.55,0,1,1,36.55-36.55A36.51,36.51,0,0,1,256.33,292.2Z" transform="translate(-0.48 0.2)"/><circle class="a242ac02-9e86-4693-ac17-d47cd459e3d8" cx="256.02" cy="255.7" r="36.5"/></g></svg>