<svg id="f9e35ad9-4b18-49c0-ba8c-f0e32ab6ff2c" data-name="Ebene 1" xmlns="http://www.w3.org/2000/svg" viewBox="0 0 511.7 511.7"><defs><style>.aaa892ee-d2f6-4794-8c75-81748cc65e1d{fill:#9400ff;}.a955bc6f-408c-4ae3-9709-4d27240ff0ff{fill:#fff;}</style></defs><title>icon-dark</title><g id="bf90f67b-42fe-4f72-9af6-32cd9b296a2a" data-name="disk1"><path class="aaa892ee-d2f6-4794-8c75-81748cc65e1d" d="M255.82.3C114.49.3,0,114.83,0,256.15S114.49,512,255.82,512,511.67,397.48,511.67,256.15,397.14.3,255.82.3Zm0,341.13a85.28,85.28,0,1,1,85.28-85.28A85.21,85.21,0,0,1,255.82,341.43Z" transform="translate(0.03 -0.3)"/><path class="a955bc6f-408c-4ae3-9709-4d27240ff0ff" d="M124.57,256.15H47a10.18,10.18,0,0,0-10.23,10.49,217.5,217.5,0,0,0,24.09,89.88,10.15,10.15,0,0,0,14.07,3.94l66.91-38.63a10,10,0,0,0,4.22-12.91,120.64,120.64,0,0,1-11.71-43.36A9.94,9.94,0,0,0,124.57,256.15Zm312-104.43-66.9,38.61a10,10,0,0,0-4.2,12.93,120.14,120.14,0,0,1,11.79,43.48,9.93,9.93,0,0,0,9.78,9.41h77.57a10.18,10.18,0,0,0,10.23-10.49,217.21,217.21,0,0,0-24.21-90A10.15,10.15,0,0,0,436.6,151.72Z" transform="translate(0.03 -0.3)"/><path class="a955bc6f-408c-4ae3-9709-4d27240ff0ff" d="M375.8,85.7,331.44,149a10.31,10.31,0,0,0,2.1,13.85q4.41,3.7,8.51,7.87a10.31,10.31,0,0,0,14,.95L415.28,122a10.12,10.12,0,0,0,1.09-14.55,221.55,221.55,0,0,0-26.13-24.09A10.11,10.11,0,0,0,375.8,85.7ZM154.48,340.86,95.3,390.52a10.13,10.13,0,0,0-1.1,14.56,219,219,0,0,0,27.62,25.23,10.11,10.11,0,0,0,14.36-2.39l44.32-63.27a10,10,0,0,0-1.77-13.56,119.74,119.74,0,0,1-10.63-9.7A10,10,0,0,0,154.48,340.86Z" transform="translate(0.03 -0.3)"/><path d="M255.82,170.87a85.28,85.28,0,1,0,85.28,85.28A85.21,85.21,0,0,0,255.82,170.87Zm0,121.83a36.55,36.55,0,1,1,36.55-36.55A36.49,36.49,0,0,1,255.82,292.7Z" transform="translate(0.03 -0.3)"/></g></svg>