<svg id="a394b336-a0a2-4a04-8cbb-d3d2ed84541e" data-name="Ebene 1" xmlns="http://www.w3.org/2000/svg" viewBox="0 0 511.99 511.99"><defs><style>.fa089987-29eb-4bfd-aac0-5ca1fe4abdd0{fill:#fff;}</style></defs><title>icon-bw</title><g id="ae1fb62e-b115-4691-bd2c-59f1f352c120" data-name="disk1"><path d="M255.69,0C114.28,0-.31,114.59-.31,256s114.59,256,256,256,256-114.59,256-256S397.09,0,255.69,0Zm0,341.33A85.34,85.34,0,1,1,341,256,85.28,85.28,0,0,1,255.69,341.34Z" transform="translate(0.31 -0.01)"/><path class="fa089987-29eb-4bfd-aac0-5ca1fe4abdd0" d="M124.36,256H46.74a10.18,10.18,0,0,0-10.23,10.5,217.55,217.55,0,0,0,24.11,89.93,10.14,10.14,0,0,0,14.07,3.94l67-38.65a10,10,0,0,0,4.21-12.91,120.86,120.86,0,0,1-11.72-43.39A9.93,9.93,0,0,0,124.36,256ZM436.57,151.51l-66.93,38.63a10,10,0,0,0-4.21,12.94,120.11,120.11,0,0,1,11.8,43.5A9.94,9.94,0,0,0,387,256h77.61a10.17,10.17,0,0,0,10.23-10.49,217.06,217.06,0,0,0-24.22-90.07A10.15,10.15,0,0,0,436.57,151.51Z" transform="translate(0.31 -0.01)"/><path class="fa089987-29eb-4bfd-aac0-5ca1fe4abdd0" d="M375.73,85.45l-44.37,63.36a10.29,10.29,0,0,0,2.1,13.85q4.41,3.71,8.51,7.88a10.3,10.3,0,0,0,14,1l59.23-49.7a10.12,10.12,0,0,0,1.09-14.56,221.72,221.72,0,0,0-26.15-24.09A10.11,10.11,0,0,0,375.73,85.45ZM154.29,340.76,95.07,390.45A10.14,10.14,0,0,0,94,405a218.52,218.52,0,0,0,27.64,25.24A10.12,10.12,0,0,0,136,427.88l44.34-63.31A10,10,0,0,0,178.55,351a119.73,119.73,0,0,1-10.63-9.71A10,10,0,0,0,154.29,340.76Z" transform="translate(0.31 -0.01)"/><circle class="fa089987-29eb-4bfd-aac0-5ca1fe4abdd0" cx="256" cy="256" r="36.57"/></g></svg>