<svg id="e050065f-c696-4594-8677-1ab0c32ad3af" data-name="Ebene 1" xmlns="http://www.w3.org/2000/svg" viewBox="0 0 1927.12 509.05"><defs><style>.a1fd9116-0009-4706-a33f-1725245b4868{fill:#fff;}.bce8519e-d6a0-4cc0-aa6d-ad31243faf0d{fill:#9f14c1;}</style></defs><title>logo-light</title><g id="b0d1a699-8eb8-4e3d-9c54-903fb3cffa48" data-name="text"><path class="a1fd9116-0009-4706-a33f-1725245b4868" d="M59.88,221.79a14,14,0,0,1,14-14h28c6.64,0,11.06,3.69,13.28,9.59l10.33,28.77c10.32-14.76,37.62-45.74,83.35-45.74,34.67,0,65.65,11.07,56.8,29.51l-27.29,48c-3.69,6.64-11.07,9.59-17,6.64-2.21-.74-13.27-4.43-21.39-4.43-29.5,0-47.21,19.92-52.38,30.24V488.83c0,10.33-6.63,14-17,14H73.9a14.51,14.51,0,0,1-14-14Z" transform="translate(-59.88 -1.23)"/><path class="a1fd9116-0009-4706-a33f-1725245b4868" d="M977.53,221.79a14,14,0,0,1,14-14h27.29c6.64,0,11.07,3.69,12.55,8.11l10.32,28c12.54-14,46.47-43.53,98.85-43.53,42,0,71.55,16.23,95.9,45.74,12.54-13.28,50.9-45.74,104-45.74,94.42,0,129.09,70.08,129.09,147.53v140.9a14,14,0,0,1-14,14h-59.76a14,14,0,0,1-14-14V342.77c0-38.36-18.44-62.7-55.33-62.7-42.78,0-62,31-62,31s.73,14.76.73,28V488.83a14.5,14.5,0,0,1-14,14h-55.32a14,14,0,0,1-14-14V342.77c0-38.36-17-62.7-54.59-62.7-36.88,0-54.59,26.56-62,46.48V488.83a14.51,14.51,0,0,1-14,14H991.55a14.51,14.51,0,0,1-14-14Z" transform="translate(-59.88 -1.23)"/><path class="a1fd9116-0009-4706-a33f-1725245b4868" d="M1538.17,52.13c0-28,22.13-50.9,50.16-50.9,28.77,0,51.64,22.87,51.64,50.9S1617.1,103,1588.33,103C1560.3,103,1538.17,80.16,1538.17,52.13Zm6.64,169.66a14,14,0,0,1,14-14h61.23a14,14,0,0,1,14,14v267a14.51,14.51,0,0,1-14,14h-61.23a14.51,14.51,0,0,1-14-14Z" transform="translate(-59.88 -1.23)"/><path class="a1fd9116-0009-4706-a33f-1725245b4868" d="M1688.65,481.45l95.9-129.09-93-123.19c-7.38-9.59-1.47-21.39,11.07-21.39h61.23c9.58,0,17.7.74,24.34,10.32l48,69.35h.73l48.69-69.35c5.9-8.11,11.8-10.32,22.13-10.32h66.39c12.54,0,16.23,11.8,8.85,21.39L1890,351.62l93.68,129.83c6.64,9.6,3,21.4-8.85,21.4H1910c-9.59,0-15.49-4.43-20.65-11.8l-52.38-73.77h-.73L1780.12,497c-2.21,2.95-8.11,5.9-11.8,5.9H1697.5C1685,502.85,1682,491.05,1688.65,481.45Z" transform="translate(-59.88 -1.23)"/></g><g id="e2e08f3f-2211-498a-ac98-1ad06a998d03" data-name="disk1"><path class="bce8519e-d6a0-4cc0-aa6d-ad31243faf0d" d="M430.52,197.33A156.48,156.48,0,1,0,587,353.81,156.46,156.46,0,0,0,430.52,197.33Zm0,208.64a52.16,52.16,0,1,1,52.16-52.16A52.12,52.12,0,0,1,430.52,406Z" transform="translate(-59.88 -1.23)"/><path class="a1fd9116-0009-4706-a33f-1725245b4868" d="M350.24,353.81H302.8a6.23,6.23,0,0,0-6.26,6.41,133.09,133.09,0,0,0,14.74,55,6.2,6.2,0,0,0,8.6,2.41L360.81,394a6.14,6.14,0,0,0,2.58-7.9,73.9,73.9,0,0,1-7.17-26.52A6.07,6.07,0,0,0,350.24,353.81Zm190.84-63.87-40.91,23.61a6.12,6.12,0,0,0-2.57,7.91,73.5,73.5,0,0,1,7.21,26.59,6.08,6.08,0,0,0,6,5.76h47.44a6.23,6.23,0,0,0,6.26-6.42,132.77,132.77,0,0,0-14.81-55.05A6.2,6.2,0,0,0,541.08,289.94Z" transform="translate(-59.88 -1.23)"/><path class="a1fd9116-0009-4706-a33f-1725245b4868" d="M503.9,249.56l-27.13,38.73a6.3,6.3,0,0,0,1.28,8.46q2.7,2.26,5.21,4.82a6.31,6.31,0,0,0,8.58.58L528,271.77a6.19,6.19,0,0,0,.67-8.9,136.53,136.53,0,0,0-16-14.73A6.18,6.18,0,0,0,503.9,249.56ZM368.54,405.61,332.34,436a6.2,6.2,0,0,0-.67,8.9,133.77,133.77,0,0,0,16.89,15.43,6.19,6.19,0,0,0,8.79-1.46l27.1-38.69a6.14,6.14,0,0,0-1.08-8.3,72.6,72.6,0,0,1-6.5-5.93A6.15,6.15,0,0,0,368.54,405.61Z" transform="translate(-59.88 -1.23)"/><circle class="a1fd9116-0009-4706-a33f-1725245b4868" cx="370.63" cy="352.58" r="22.35"/></g><g id="fe91f141-5e3f-4d66-ba9f-c9e690c715cc" data-name="disk2"><path class="bce8519e-d6a0-4cc0-aa6d-ad31243faf0d" d="M765.83,197.33A156.48,156.48,0,1,0,922.3,353.81,156.46,156.46,0,0,0,765.83,197.33Zm0,208.64A52.16,52.16,0,1,1,818,353.81,52.12,52.12,0,0,1,765.83,406Z" transform="translate(-59.88 -1.23)"/><path class="a1fd9116-0009-4706-a33f-1725245b4868" d="M685.55,353.81H638.11a6.23,6.23,0,0,0-6.26,6.41,133.09,133.09,0,0,0,14.74,55,6.2,6.2,0,0,0,8.6,2.41L696.12,394a6.14,6.14,0,0,0,2.58-7.9,73.9,73.9,0,0,1-7.17-26.52A6.07,6.07,0,0,0,685.55,353.81Zm190.84-63.87-40.91,23.61a6.12,6.12,0,0,0-2.57,7.91,73.5,73.5,0,0,1,7.21,26.59,6.08,6.08,0,0,0,6,5.76h47.44a6.23,6.23,0,0,0,6.26-6.42A132.77,132.77,0,0,0,885,292.34,6.2,6.2,0,0,0,876.39,289.94Z" transform="translate(-59.88 -1.23)"/><path class="a1fd9116-0009-4706-a33f-1725245b4868" d="M839.21,249.56l-27.13,38.73a6.29,6.29,0,0,0,1.28,8.46q2.7,2.26,5.21,4.82a6.31,6.31,0,0,0,8.58.58l36.2-30.38a6.19,6.19,0,0,0,.67-8.9,136.53,136.53,0,0,0-16-14.73A6.18,6.18,0,0,0,839.21,249.56ZM703.85,405.61,667.65,436a6.2,6.2,0,0,0-.67,8.9,133.77,133.77,0,0,0,16.89,15.43,6.19,6.19,0,0,0,8.79-1.46l27.1-38.69a6.15,6.15,0,0,0-1.08-8.3,72.6,72.6,0,0,1-6.5-5.93A6.15,6.15,0,0,0,703.85,405.61Z" transform="translate(-59.88 -1.23)"/><circle class="a1fd9116-0009-4706-a33f-1725245b4868" cx="705.94" cy="352.58" r="22.35"/></g></svg>