<svg id="a4a5a937-31e8-4aa4-b9fa-17e745c8773e" data-name="Ebene 1" xmlns="http://www.w3.org/2000/svg" viewBox="0 0 1929.12 509.58"><defs><style>.e1f272b9-bd67-403f-9c7f-524994b340c2{fill:#fff;}</style></defs><title>logo-bw</title><g id="aabed11a-3a47-4b78-b42a-484bfd630089" data-name="text"><path class="e1f272b9-bd67-403f-9c7f-524994b340c2" d="M58.88,221.76a14,14,0,0,1,14-14H101c6.65,0,11.08,3.69,13.29,9.6l10.34,28.8c10.34-14.77,37.66-45.79,83.45-45.79,34.7,0,65.72,11.08,56.86,29.54l-27.33,48c-3.69,6.65-11.07,9.6-17,6.65-2.21-.74-13.29-4.43-21.41-4.43-29.54,0-47.26,19.93-52.43,30.27V489.08c0,10.33-6.65,14-17,14H72.91a14.52,14.52,0,0,1-14-14Z" transform="translate(-58.88 -0.97)"/><path class="e1f272b9-bd67-403f-9c7f-524994b340c2" d="M977.49,221.76a14,14,0,0,1,14-14h27.32c6.65,0,11.07,3.69,12.55,8.12l10.34,28.06c12.55-14,46.52-43.57,99-43.57,42.09,0,71.63,16.25,96,45.79,12.55-13.29,51-45.79,104.12-45.79C1435.32,200.34,1470,270.5,1470,348V489.08a14,14,0,0,1-14,14h-59.82a14,14,0,0,1-14-14V342.86c0-38.4-18.46-62.76-55.38-62.76-42.83,0-62,31-62,31s.74,14.77.74,28.06V489.08a14.52,14.52,0,0,1-14,14h-55.39a14,14,0,0,1-14-14V342.86c0-38.4-17-62.76-54.64-62.76-36.92,0-54.64,26.58-62,46.52V489.08a14.52,14.52,0,0,1-14,14H991.52a14.51,14.51,0,0,1-14-14Z" transform="translate(-58.88 -0.97)"/><path class="e1f272b9-bd67-403f-9c7f-524994b340c2" d="M1538.7,51.92c0-28.06,22.16-50.95,50.21-50.95,28.8,0,51.7,22.89,51.7,51s-22.9,51-51.7,51C1560.86,102.87,1538.7,80,1538.7,51.92Zm6.65,169.84a14,14,0,0,1,14-14h61.29a14,14,0,0,1,14,14V489.08a14.52,14.52,0,0,1-14,14h-61.29a14.51,14.51,0,0,1-14-14Z" transform="translate(-58.88 -0.97)"/><path class="e1f272b9-bd67-403f-9c7f-524994b340c2" d="M1689.34,481.69l96-129.23-93-123.32c-7.39-9.6-1.48-21.41,11.07-21.41h61.29c9.6,0,17.73.74,24.37,10.34l48,69.41h.74l48.73-69.41c5.91-8.13,11.82-10.34,22.16-10.34h66.46c12.55,0,16.24,11.81,8.86,21.41l-93,122.58,93.78,130c6.64,9.6,3,21.41-8.86,21.41h-65c-9.6,0-15.5-4.42-20.67-11.81l-52.43-73.84H1837l-56.12,79.75c-2.22,2.95-8.12,5.9-11.82,5.9H1698.2C1685.65,503.1,1682.7,491.29,1689.34,481.69Z" transform="translate(-58.88 -0.97)"/></g><g id="f3cc4efe-3aa7-46b8-b41d-79dd001b51c5" data-name="disk1"><path d="M429.9,197.27A156.64,156.64,0,1,0,586.54,353.91,156.62,156.62,0,0,0,429.9,197.27Zm0,208.85a52.21,52.21,0,1,1,52.21-52.21A52.16,52.16,0,0,1,429.9,406.12Z" transform="translate(-58.88 -0.97)"/><path class="e1f272b9-bd67-403f-9c7f-524994b340c2" d="M349.55,353.91h-47.5a6.22,6.22,0,0,0-6.26,6.42,133.22,133.22,0,0,0,14.75,55,6.21,6.21,0,0,0,8.61,2.41l41-23.65a6.12,6.12,0,0,0,2.58-7.9,74.06,74.06,0,0,1-7.17-26.55A6.08,6.08,0,0,0,349.55,353.91Zm191-63.94-41,23.64a6.14,6.14,0,0,0-2.58,7.92,73.41,73.41,0,0,1,7.22,26.61,6.09,6.09,0,0,0,6,5.77h47.49a6.23,6.23,0,0,0,6.26-6.42,132.83,132.83,0,0,0-14.82-55.12A6.22,6.22,0,0,0,540.58,290Z" transform="translate(-58.88 -0.97)"/><path class="e1f272b9-bd67-403f-9c7f-524994b340c2" d="M503.36,249.55,476.2,288.32a6.32,6.32,0,0,0,1.29,8.48q2.7,2.26,5.21,4.81a6.31,6.31,0,0,0,8.59.59l36.24-30.41a6.2,6.2,0,0,0,.67-8.91,136.89,136.89,0,0,0-16-14.75A6.19,6.19,0,0,0,503.36,249.55ZM367.86,405.77l-36.24,30.4a6.22,6.22,0,0,0-.67,8.92,134.08,134.08,0,0,0,16.91,15.44,6.19,6.19,0,0,0,8.8-1.46l27.13-38.73a6.16,6.16,0,0,0-1.08-8.31,72.7,72.7,0,0,1-6.51-5.94A6.15,6.15,0,0,0,367.86,405.77Z" transform="translate(-58.88 -0.97)"/><circle class="e1f272b9-bd67-403f-9c7f-524994b340c2" cx="371.02" cy="352.94" r="22.38"/></g><g id="a119e256-292a-4cc5-937f-61699eb361ea" data-name="disk2"><path d="M765.56,197.27A156.64,156.64,0,1,0,922.2,353.91,156.61,156.61,0,0,0,765.56,197.27Zm0,208.85a52.21,52.21,0,1,1,52.21-52.21A52.16,52.16,0,0,1,765.56,406.12Z" transform="translate(-58.88 -0.97)"/><path class="e1f272b9-bd67-403f-9c7f-524994b340c2" d="M685.2,353.91H637.71a6.22,6.22,0,0,0-6.26,6.42,133.06,133.06,0,0,0,14.75,55,6.21,6.21,0,0,0,8.61,2.41l41-23.65a6.14,6.14,0,0,0,2.58-7.9,73.85,73.85,0,0,1-7.17-26.55A6.08,6.08,0,0,0,685.2,353.91Zm191-63.94-41,23.64a6.14,6.14,0,0,0-2.57,7.92,73.41,73.41,0,0,1,7.22,26.61,6.09,6.09,0,0,0,6,5.77h47.49a6.23,6.23,0,0,0,6.26-6.42,133.13,133.13,0,0,0-14.82-55.12A6.22,6.22,0,0,0,876.24,290Z" transform="translate(-58.88 -0.97)"/><path class="e1f272b9-bd67-403f-9c7f-524994b340c2" d="M839,249.55l-27.15,38.77a6.31,6.31,0,0,0,1.29,8.48c1.8,1.51,3.53,3.11,5.21,4.81a6.31,6.31,0,0,0,8.59.59l36.24-30.41a6.21,6.21,0,0,0,.67-8.91,136.89,136.89,0,0,0-16-14.75A6.2,6.2,0,0,0,839,249.55ZM703.51,405.77l-36.23,30.4a6.21,6.21,0,0,0-.67,8.92,134.08,134.08,0,0,0,16.91,15.44,6.18,6.18,0,0,0,8.79-1.46l27.14-38.73a6.15,6.15,0,0,0-1.09-8.31,72.7,72.7,0,0,1-6.51-5.94A6.15,6.15,0,0,0,703.51,405.77Z" transform="translate(-58.88 -0.97)"/><circle class="e1f272b9-bd67-403f-9c7f-524994b340c2" cx="706.68" cy="352.94" r="22.38"/></g></svg>