<svg id="e8f7f197-c637-4df1-a5a9-6e22c28ff58e" data-name="Ebene 1" xmlns="http://www.w3.org/2000/svg" viewBox="0 0 1925.12 508.53"><defs><style>.b8dbd4b8-34c8-47c9-ad53-677580d53fe3{fill:#9f14c1;}.afad25d4-c8ca-49df-b3e8-354035819ca2{fill:#fff;}</style></defs><title>logo-dark</title><g id="f11d3295-f91f-45a0-bd07-c61e6118674d" data-name="text"><path d="M60.88,221.83a14,14,0,0,1,14-14h28c6.63,0,11,3.68,13.26,9.58l10.32,28.74c10.31-14.74,37.58-45.69,83.27-45.69,34.63,0,65.58,11,56.74,29.47l-27.27,47.9c-3.68,6.64-11.05,9.58-17,6.64-2.21-.74-13.26-4.42-21.36-4.42-29.48,0-47.17,19.89-52.33,30.21V488.59c0,10.32-6.63,14-16.94,14H74.88a14.5,14.5,0,0,1-14-14Z" transform="translate(-60.88 -1.49)"/><path d="M977.58,221.83a14,14,0,0,1,14-14h27.27c6.63,0,11.05,3.68,12.53,8.1l10.31,28c12.53-14,46.43-43.48,98.75-43.48,42,0,71.48,16.21,95.8,45.69,12.52-13.26,50.84-45.69,103.9-45.69,94.32,0,129,70,129,147.38V488.59a14,14,0,0,1-14,14h-59.69a14,14,0,0,1-14-14V342.68c0-38.32-18.43-62.63-55.27-62.63-42.74,0-61.9,30.95-61.9,30.95s.73,14.73.73,28V488.59a14.49,14.49,0,0,1-14,14h-55.26a14,14,0,0,1-14-14V342.68c0-38.32-17-62.63-54.54-62.63-36.84,0-54.53,26.52-61.9,46.42V488.59a14.49,14.49,0,0,1-14,14H991.58a14.49,14.49,0,0,1-14-14Z" transform="translate(-60.88 -1.49)"/><path d="M1537.63,52.34c0-28,22.11-50.85,50.11-50.85,28.74,0,51.59,22.85,51.59,50.85s-22.85,50.85-51.59,50.85C1559.74,103.19,1537.63,80.34,1537.63,52.34Zm6.63,169.49a14,14,0,0,1,14-14h61.16a14,14,0,0,1,14,14V488.59a14.49,14.49,0,0,1-14,14h-61.16a14.5,14.5,0,0,1-14-14Z" transform="translate(-60.88 -1.49)"/><path d="M1688,481.22l95.8-129L1690.91,229.2c-7.37-9.58-1.48-21.37,11-21.37h61.17c9.57,0,17.68.74,24.31,10.31l47.9,69.27h.74l48.63-69.27c5.9-8.1,11.8-10.31,22.11-10.31h66.32c12.53,0,16.22,11.79,8.85,21.37l-92.85,122.32,93.58,129.7c6.64,9.58,3,21.37-8.84,21.37H1909c-9.58,0-15.47-4.42-20.63-11.79l-52.32-73.69h-.74l-56,79.59c-2.21,2.94-8.11,5.89-11.79,5.89H1696.8C1684.28,502.59,1681.33,490.8,1688,481.22Z" transform="translate(-60.88 -1.49)"/></g><g id="abff3c94-fc3e-49bb-9344-0e641643aa31" data-name="disk1"><path class="b8dbd4b8-34c8-47c9-ad53-677580d53fe3" d="M431.13,197.39A156.32,156.32,0,1,0,587.45,353.71,156.3,156.3,0,0,0,431.13,197.39Zm0,208.42a52.11,52.11,0,1,1,52.11-52.1A52.07,52.07,0,0,1,431.13,405.81Z" transform="translate(-60.88 -1.49)"/><path class="afad25d4-c8ca-49df-b3e8-354035819ca2" d="M350.94,353.71H303.55a6.2,6.2,0,0,0-6.25,6.4A132.84,132.84,0,0,0,312,415a6.19,6.19,0,0,0,8.59,2.4l40.89-23.6a6.11,6.11,0,0,0,2.57-7.88,73.63,73.63,0,0,1-7.15-26.5A6.06,6.06,0,0,0,350.94,353.71ZM541.58,289.9l-40.87,23.59a6.12,6.12,0,0,0-2.57,7.9A73.4,73.4,0,0,1,505.35,348a6.07,6.07,0,0,0,6,5.76h47.38A6.23,6.23,0,0,0,565,347.3a132.72,132.72,0,0,0-14.8-55A6.19,6.19,0,0,0,541.58,289.9Z" transform="translate(-60.88 -1.49)"/><path class="afad25d4-c8ca-49df-b3e8-354035819ca2" d="M504.44,249.56l-27.1,38.69a6.29,6.29,0,0,0,1.28,8.46q2.7,2.27,5.2,4.81a6.29,6.29,0,0,0,8.57.58l36.17-30.34a6.2,6.2,0,0,0,.67-8.9,136.26,136.26,0,0,0-16-14.71A6.17,6.17,0,0,0,504.44,249.56ZM369.22,405.46,333.06,435.8a6.2,6.2,0,0,0-.67,8.9,133.51,133.51,0,0,0,16.87,15.41,6.19,6.19,0,0,0,8.78-1.46L385.12,420a6.13,6.13,0,0,0-1.09-8.28,72.35,72.35,0,0,1-6.49-5.93A6.13,6.13,0,0,0,369.22,405.46Z" transform="translate(-60.88 -1.49)"/><path d="M431.13,301.6a52.11,52.11,0,1,0,52.11,52.11A52.07,52.07,0,0,0,431.13,301.6Zm0,74.44a22.34,22.34,0,1,1,22.33-22.33A22.31,22.31,0,0,1,431.13,376Z" transform="translate(-60.88 -1.49)"/></g><g id="bbca2577-0497-45b6-b750-ea712e46c1b9" data-name="disk2"><path class="b8dbd4b8-34c8-47c9-ad53-677580d53fe3" d="M766.09,197.39A156.32,156.32,0,1,0,922.41,353.71,156.3,156.3,0,0,0,766.09,197.39Zm0,208.42a52.11,52.11,0,1,1,52.11-52.1A52.07,52.07,0,0,1,766.09,405.81Z" transform="translate(-60.88 -1.49)"/><path class="afad25d4-c8ca-49df-b3e8-354035819ca2" d="M685.9,353.71H638.51a6.21,6.21,0,0,0-6.25,6.4A132.84,132.84,0,0,0,647,415a6.2,6.2,0,0,0,8.59,2.4l40.89-23.6A6.1,6.1,0,0,0,699,386a74,74,0,0,1-7.15-26.5A6.06,6.06,0,0,0,685.9,353.71ZM876.54,289.9l-40.87,23.59a6.11,6.11,0,0,0-2.56,7.9,73.59,73.59,0,0,1,7.2,26.56,6.08,6.08,0,0,0,6,5.76h47.39a6.23,6.23,0,0,0,6.25-6.41,132.72,132.72,0,0,0-14.8-55A6.19,6.19,0,0,0,876.54,289.9Z" transform="translate(-60.88 -1.49)"/><path class="afad25d4-c8ca-49df-b3e8-354035819ca2" d="M839.4,249.56l-27.1,38.69a6.3,6.3,0,0,0,1.28,8.46q2.7,2.27,5.2,4.81a6.29,6.29,0,0,0,8.57.58l36.17-30.34a6.2,6.2,0,0,0,.67-8.9,136.26,136.26,0,0,0-16-14.71A6.17,6.17,0,0,0,839.4,249.56ZM704.18,405.46,668,435.8a6.2,6.2,0,0,0-.67,8.9,133.51,133.51,0,0,0,16.87,15.41,6.19,6.19,0,0,0,8.78-1.46L720.08,420a6.14,6.14,0,0,0-1.08-8.28,71.12,71.12,0,0,1-6.5-5.93A6.13,6.13,0,0,0,704.18,405.46Z" transform="translate(-60.88 -1.49)"/><path d="M766.09,301.6a52.11,52.11,0,1,0,52.11,52.11A52.07,52.07,0,0,0,766.09,301.6Zm0,74.44a22.34,22.34,0,1,1,22.33-22.33A22.31,22.31,0,0,1,766.09,376Z" transform="translate(-60.88 -1.49)"/></g></svg>